<?xml version="1.0" standalone="no"?><!DOCTYPE svg PUBLIC "-//W3C//DTD SVG 1.1//EN" "http://www.w3.org/Graphics/SVG/1.1/DTD/svg11.dtd"><svg t="1557316196178" class="icon" style="" viewBox="0 0 1024 1024" version="1.1" xmlns="http://www.w3.org/2000/svg" p-id="1966" xmlns:xlink="http://www.w3.org/1999/xlink" width="200" height="200"><defs><style type="text/css"></style></defs><path d="M277.333333 700.309333a4258.837333 4258.837333 0 0 0-64-5.248c-18.56 0-36.138667-3.712-52.053333-10.218666a129.664 129.664 0 0 1-36.714667-22.698667 73.770667 73.770667 0 0 0-5.077333 48.917333C141.013333 798.954667 212.970667 826.453333 277.333333 831.125333v-130.816z" fill="#546E7A" p-id="1967"></path><path d="M746.666667 661.376C677.973333 771.242667 556.266667 874.666667 426.666667 874.666667S192 769.6 192 640s105.066667-234.666667 234.666667-234.666667l128 0.042667c19.584 0 42.666667-21.333333 42.666666-42.709333 312.896-5.290667 234.666667 149.376 149.333334 298.709333z" fill="#CFD8DC" p-id="1968"></path><path d="M661.333333 277.333333c-117.845333-58.944-333.952-42.752-335.978666-42.965333a53.333333 53.333333 0 1 1 10.602666-106.112c9.109333 0.896 224.234667-8.298667 359.872 90.688 50.837333 37.098667 37.034667 45.205333 23.850667 71.552-9.344 18.688-50.688-9.322667-58.346667-13.162667z" fill="#78909C" p-id="1969"></path><path d="M938.666667 426.666667c0 70.677333-142.656 64-213.333334 64a128 128 0 0 1 0-256c70.677333 0 213.333333 64 213.333334 192z" fill="#78909C" p-id="1970"></path><path d="M651.797333 258.005333C501.013333 186.538667 296 212.266667 286.912 212.48a53.333333 53.333333 0 1 0 2.176 106.645333c1.92-0.042667 191.914667-37.461333 317.482667-4.074666a128.32 128.32 0 0 1 45.226666-57.045334z" fill="#B0BEC5" p-id="1971"></path><path d="M789.333333 832V582.101333c-12.565333 25.984-27.477333 52.714667-42.666666 79.274667a547.2 547.2 0 0 1-62.72 81.728l20.053333 110.336S704 896 746.666667 896h85.333333v-21.333333s0-42.666667-42.666667-42.666667zM533.333333 693.333333C533.333333 874.666667 320 832 256 832v-138.666667a138.666667 138.666667 0 1 1 277.333333 0z" fill="#90A4AE" p-id="1972"></path><path d="M576 832H256v64h362.666667v-21.333333a42.666667 42.666667 0 0 0-42.666667-42.666667z" fill="#90A4AE" p-id="1973"></path><path d="M853.333333 362.666667h-51.669333c-42.666667 0-54.997333-64-54.997333-64h52.330666c42.666667 0 54.336 64 54.336 64z" fill="#455A64" p-id="1974"></path><path d="M800 330.666667m-32 0a32 32 0 1 0 64 0 32 32 0 1 0-64 0Z" p-id="1975"></path></svg>