<?xml version="1.0" standalone="no"?><!DOCTYPE svg PUBLIC "-//W3C//DTD SVG 1.1//EN" "http://www.w3.org/Graphics/SVG/1.1/DTD/svg11.dtd"><svg t="1557297708638" class="icon" style="" viewBox="0 0 1024 1024" version="1.1" xmlns="http://www.w3.org/2000/svg" p-id="794" xmlns:xlink="http://www.w3.org/1999/xlink" width="200" height="200"><defs><style type="text/css"></style></defs><path d="M552.412745 782.628571c-5.851429 0-10.24-4.388571-10.971428-9.508571-0.731429-5.851429 3.657143-10.971429 9.508571-11.702857 3.657143 0 7.314286-0.731429 10.971429-1.462857 49.737143-7.314286 95.085714-29.257143 130.194285-64.365715 35.108571-35.108571 57.782857-80.457143 64.365715-130.194285 3.657143-24.868571 2.925714-49.737143-0.731429-75.337143-8.777143-54.857143-35.108571-106.057143-75.337143-146.285714-10.24-10.24-20.48-19.017143-31.451428-27.062858-5.12-3.657143-5.851429-10.24-2.194286-15.36 3.657143-5.12 10.24-5.851429 15.36-2.194285 11.702857 8.777143 23.405714 18.285714 34.377143 29.257143 43.885714 43.885714 71.68 98.742857 81.92 157.988571 4.388571 27.062857 5.12 54.857143 0.731428 81.188571-8.045714 54.857143-32.182857 103.862857-70.948571 142.628572-38.765714 38.765714-87.771429 62.902857-142.628572 70.948571-4.388571 0.731429-8.045714 0.731429-11.702857 1.462857h-1.462857z" p-id="795"></path><path d="M760.869888 1024h-5.12c-19.748571-1.462857-37.302857-10.971429-49.005714-27.062857l-158.72-212.845714c-2.194286-2.925714-2.925714-6.582857-1.462857-10.24 1.462857-3.657143 4.388571-5.851429 8.045714-6.582858 52.662857-8.777143 100.205714-33.645714 137.508571-71.68s62.171429-85.577143 71.68-137.508571c0.731429-3.657143 2.925714-6.582857 6.582857-8.045714 3.657143-1.462857 7.314286-0.731429 10.24 1.462857l217.965715 162.377143c14.628571 10.971429 23.405714 27.062857 24.868571 45.348571s-5.12 35.108571-17.554286 48.274286c-18.285714 18.285714-46.08 23.405714-68.754285 12.434286-31.451429-13.897143-68.754286-7.314286-92.891429 16.822857-23.405714 23.405714-30.72 59.245714-18.285714 89.965714 10.971429 26.331429 5.12 55.588571-13.897143 74.605714l-3.657143 3.657143c-13.165714 11.702857-29.988571 19.017143-47.542857 19.017143z m-185.051429-239.177143L724.298459 984.502857c8.045714 10.971429 19.748571 17.554286 33.645715 18.285714 13.165714 0.731429 26.331429-3.657143 35.84-13.165714l3.657143-3.657143c13.165714-13.165714 16.822857-32.914286 9.508571-51.2-16.091429-38.765714-6.582857-83.382857 22.674286-113.371428 30.72-30.72 77.531429-39.497143 117.028571-21.211429 15.36 6.582857 32.914286 3.657143 44.617143-8.045714 8.045714-8.045714 12.434286-19.748571 11.702857-31.451429-0.731429-11.702857-6.582857-22.674286-16.091428-29.257143l-204.8-152.137142c-11.702857 49.737143-37.302857 95.817143-73.874286 132.388571-37.302857 35.84-82.651429 61.44-132.388572 73.142857z m260.388572 43.154286zM246.675602 478.354286c-2.194286 0-4.388571-0.731429-6.582857-2.194286L27.247031 317.44c-15.36-11.702857-25.6-29.257143-27.062857-49.005714-1.462857-19.748571 5.851429-38.765714 19.748571-52.662857l3.657143-3.657143c19.017143-19.017143 48.274286-24.868571 74.605714-13.897143 30.72 12.434286 66.56 5.12 89.965715-18.285714C212.298459 155.794286 219.612745 118.491429 204.984174 87.04c-10.24-23.405714-5.851429-51.2 12.434285-68.754286C229.852745 5.851429 247.407031-0.731429 265.692745 0.731429c17.554286 1.462857 34.377143 10.24 45.348572 24.868571l162.377142 217.965714c2.194286 2.925714 2.925714 6.582857 1.462858 10.24-1.462857 3.657143-4.388571 5.851429-8.045715 6.582857-52.662857 8.777143-100.205714 33.645714-137.508571 71.68-38.034286 38.034286-62.171429 85.577143-71.68 137.508572-0.731429 3.657143-2.925714 6.582857-6.582857 8.045714-1.462857 0-2.925714 0.731429-4.388572 0.731429z m-175.542857-264.045715c-12.434286 0-23.405714 4.388571-32.182857 13.165715l-3.657143 3.657143c-9.508571 9.508571-13.897143 22.674286-13.165714 35.84 0.731429 13.165714 7.314286 25.6 18.285714 33.645714l199.68 148.48c11.702857-49.737143 37.302857-95.817143 73.874286-132.388572 36.571429-36.571429 82.651429-62.171429 132.388571-73.874285l-152.137143-204.8c-7.314286-9.508571-17.554286-15.36-29.257142-16.091429-11.702857-0.731429-23.405714 3.657143-31.451429 11.702857-11.702857 11.702857-15.36 29.988571-8.045714 44.617143 17.554286 39.497143 9.508571 86.308571-21.211429 117.028572-29.988571 29.988571-74.605714 38.765714-113.371428 22.674285-6.582857-2.194286-13.165714-3.657143-19.748572-3.657143z m125.074286-26.331428z" p-id="796"></path><path d="M327.864174 695.588571c-2.925714 0-5.851429-1.462857-8.045715-3.657142-103.862857-109.714286-106.788571-275.017143-5.851428-375.954286 41.691429-41.691429 95.085714-66.56 155.062857-71.68 5.12-0.731429 9.508571 2.194286 10.971429 6.582857 51.2 136.045714 17.554286 291.108571-84.845715 394.24-18.285714 18.285714-38.765714 35.108571-60.708571 49.005714-2.194286 0.731429-4.388571 1.462857-6.582857 1.462857z m134.582857-429.348571c-51.2 6.582857-97.28 28.525714-133.12 65.097143-90.697143 90.697143-89.965714 238.445714 0.731428 339.382857 17.554286-12.434286 34.377143-26.331429 49.737143-40.96 94.354286-95.085714 126.537143-236.982857 82.651429-363.52z" p-id="797"></path><path d="M527.544174 783.36c-14.628571 0-29.257143-1.462857-43.885715-3.657143-59.245714-9.508571-114.102857-38.034286-157.988571-81.92-2.194286-2.194286-4.388571-4.388571-5.851429-6.582857-103.862857-109.714286-106.788571-275.017143-5.851428-375.954286 41.691429-41.691429 95.085714-66.56 155.062857-71.68 68.022857-6.582857 136.777143 13.165714 193.097143 54.857143 1.462857 0.731429 2.194286 2.194286 2.925714 3.657143 78.994286 144.091429 52.662857 325.485714-63.634286 441.782857-13.165714 13.165714-27.062857 25.6-42.422857 36.571429-1.462857 1.462857-3.657143 2.194286-5.12 2.194285-8.777143 0.731429-17.554286 0.731429-26.331428 0.731429z m24.868571-11.702857z m-57.782857-507.611429c-8.045714 0-16.091429 0.731429-24.137143 1.462857-54.857143 5.12-103.862857 27.794286-141.897143 65.828572-92.891429 92.891429-89.965714 245.028571 6.582857 346.697143 2.194286 2.194286 3.657143 3.657143 5.12 5.851428 40.96 40.96 91.428571 66.56 146.285715 76.068572 20.48 3.657143 40.96 4.388571 61.44 2.194285 13.165714-10.24 26.331429-21.211429 38.034285-32.914285C695.041317 619.52 719.909888 449.828571 647.498459 314.514286c-45.348571-32.914286-98.742857-50.468571-152.868571-50.468572z" p-id="798"></path></svg>