<?xml version="1.0" standalone="no"?><!DOCTYPE svg PUBLIC "-//W3C//DTD SVG 1.1//EN" "http://www.w3.org/Graphics/SVG/1.1/DTD/svg11.dtd"><svg t="1557298879789" class="icon" style="" viewBox="0 0 1024 1024" version="1.1" xmlns="http://www.w3.org/2000/svg" p-id="1729" xmlns:xlink="http://www.w3.org/1999/xlink" width="200" height="200"><defs><style type="text/css"></style></defs><path d="M647.6 587.8L562 575.3l-38.3-77.5c-2.4-4.8-7.8-6.5-12.1-6.5s-9.8 1.7-12.1 6.5l-38.3 77.5-85.6 12.5c-5 0.7-9.3 4.3-10.9 9.2-1.6 4.9-0.2 10.3 3.4 13.8l61.9 60.3-14.6 85.2c-0.9 5 1.2 10.2 5.4 13.2 2.3 1.7 5.1 2.6 7.9 2.6 2.2 0 4.4-0.5 6.3-1.6l76.5-40.2 76.6 40.2c1.9 1 4.1 1.6 6.3 1.6 2.9 0 5.6-0.9 7.9-2.6 4.2-3 6.3-8.1 5.4-13.2l-14.6-85.2 61.9-60.4c3.6-3.5 5-9 3.4-13.8-1.5-4.8-5.7-8.4-10.8-9.1z m-80 64.1c-4.1 4-5.9 9.7-5 15.3l9.9 57.7-51.8-27.2c-2.5-1.3-5.2-2-8-2s-5.6 0.7-8 2l-51.8 27.2 9.9-57.7c1-5.6-0.9-11.3-5-15.3l-41.9-40.8 57.9-8.4c5.6-0.8 10.5-4.4 13-9.5l25.9-52.5 25.9 52.5c2.5 5.1 7.4 8.6 13 9.5l57.9 8.4-41.9 40.8z" fill="#6B400D" p-id="1730"></path><path d="M538.6 593.2l-25.9-52.5-25.9 52.5c-2.5 5.1-7.4 8.6-13 9.5l-57.9 8.4 41.9 40.8c4.1 4 5.9 9.7 5 15.3l-9.9 57.7 51.8-27.2c2.5-1.3 5.2-2 8-2s5.6 0.7 8 2l51.8 27.2-9.9-57.7c-1-5.6 0.9-11.3 5-15.3l41.9-40.8-57.9-8.4c-5.6-0.9-10.5-4.4-13-9.5z" fill="#FFD524" p-id="1731"></path><path d="M393.5 798.2c-35.9-20.9-57-47.8-73-92.8l-1.2-3c-3-5.9-9.1-9.6-16-9.6-1.9 0.1-3.7 0.4-5.3 1-7.9 2.8-12.7 10.9-11.3 19.7l1.2 3.9c18.4 51.8 44.3 84.6 86.6 109.6 0.1 0 6.3 4.1 9.5 4.1l2.4 0.1c1.7-0.1 3.4-0.4 5.1-1 9-3.2 13.7-13.2 10.5-22.3-1.5-4.5-4.8-8.1-8.5-9.7zM296.8 684.4c4.7-1.5 8.5-4.8 10.8-9.2 2.3-4.4 2.6-9.5 1.1-14.2-2.5-7.7-9.6-12.8-17.7-12.8-1.9 0-3.9 0.3-5.8 0.9-9.8 3.2-15.1 13.7-11.9 23.4 2.5 7.7 9.6 12.8 17.7 12.8 2 0 3.9-0.3 5.8-0.9z" fill="#6B400D" p-id="1732"></path><path d="M752.8 412.5c51.1-2.8 83.8-44 83.8-106.7v-134c0-59-48-107-106.9-107h-434c-59 0-106.9 48-106.9 107v134c0 62.1 32 103 83.8 106.6-53.4 58.1-86 135.5-86 220.4 0 179.8 146.3 326.1 326.1 326.1s326.1-146.3 326.1-326.1c-0.1-84.9-32.7-162.2-86-220.3z m-84.3-301h61.2c33.3 0 60.3 27.1 60.3 60.3v134c0 40-14.4 60.3-42.7 60.3H700c-10.1-7.1-20.6-13.8-31.5-19.7V111.5z m-267.9-2.8h224.1v221.8c-35-13-72.6-20.5-112-20.5-39.4 0-77.1 7.5-112 20.5V108.7zM235.3 305.8v-134c0-33.3 27.1-60.3 60.3-60.3h61.2v234.9c-10.9 6-21.4 12.6-31.5 19.7H278c-28.3 0.1-42.7-20.2-42.7-60.3z m277.4 605.6c-153.6 0-278.6-125-278.6-278.6 0-153.6 125-278.5 278.6-278.5 153.6 0 278.5 124.9 278.5 278.5S666.3 911.4 512.7 911.4z" fill="#6B400D" p-id="1733"></path><path d="M624.7 330.4V108.7H400.6v221.8c35-13 72.6-20.5 112-20.5 39.5 0 77.1 7.4 112.1 20.4z" fill="#FFD524" p-id="1734"></path></svg>