<?xml version="1.0" standalone="no"?><!DOCTYPE svg PUBLIC "-//W3C//DTD SVG 1.1//EN" "http://www.w3.org/Graphics/SVG/1.1/DTD/svg11.dtd"><svg t="1557249850815" class="icon" style="" viewBox="0 0 1024 1024" version="1.1" xmlns="http://www.w3.org/2000/svg" p-id="1525" xmlns:xlink="http://www.w3.org/1999/xlink" width="200" height="200"><defs><style type="text/css"></style></defs><path d="M642.274343 168.847193v-1.45558c0-92.429282-74.962331-167.391613-167.391614-167.391613h-5.094527c-92.429282 0-167.391613 74.962331-167.391614 167.391613v758.356788H210.695096c-36.389481 0-69.867804 18.194741-89.518124 48.034115l-18.92253 28.383795c-3.638948 5.094527-2.183369 11.644634 2.911159 15.283582 2.183369 1.455579 3.638948 1.455579 5.822317 1.45558 3.638948 0 7.277896-1.455579 9.461265-5.094528l18.92253-28.383795c16.011372-24.017058 42.211798-38.57285 71.323383-38.57285h205.964463c28.383795 0 55.312011 14.555792 71.323383 38.57285l18.922531 28.383795c3.638948 5.094527 10.189055 6.550107 15.283582 2.911159 5.094527-3.638948 6.550107-10.189055 2.911158-15.283582l-18.92253-28.383796a106.985075 106.985075 0 0 0-89.518124-48.034115H324.230277V167.391613c0-80.056859 65.501066-145.557925 145.557925-145.557924h5.094527c80.056859 0 145.557925 65.501066 145.557925 145.557924v1.45558c-82.968017 5.822317-149.196873 74.962331-149.196873 159.385927v53.128643c0 5.822317 5.094527 10.916844 10.916844 10.916844h298.393746c5.822317 0 10.916844-5.094527 10.916844-10.916844v-53.128643c0.72779-84.423596-65.501066-154.2914-149.196872-159.385927z m128.090973 201.597725h-276.560057v-42.211798c0-76.41791 61.862118-138.280028 138.280029-138.280028s138.280028 61.862118 138.280028 138.280028v42.211798z" p-id="1526"></path></svg>