<?xml version="1.0" standalone="no"?><!DOCTYPE svg PUBLIC "-//W3C//DTD SVG 1.1//EN" "http://www.w3.org/Graphics/SVG/1.1/DTD/svg11.dtd"><svg t="1557298811540" class="icon" style="" viewBox="0 0 1024 1024" version="1.1" xmlns="http://www.w3.org/2000/svg" p-id="1227" xmlns:xlink="http://www.w3.org/1999/xlink" width="200" height="200"><defs><style type="text/css"></style></defs><path d="M235.4 458.6c-9.6 9.4-9.8 24.8-0.4 34.4 9.4 9.6 24.8 9.8 34.4 0.4 9.6-9.4 9.8-24.8 0.4-34.4-9.4-9.6-24.8-9.8-34.4-0.4zM317.9 514.1c-7.5-7.6-19.8-7.8-27.5-0.3l-1.1 1.1c-7.6 7.5-7.8 19.8-0.3 27.5l128.2 131.2c7.5 7.6 19.8 7.8 27.5 0.3l1.1-1.1c7.6-7.5 7.8-19.8 0.3-27.5L317.9 514.1z" fill="#6B400D" p-id="1228"></path><path d="M923.9 541.5c-25.5-27.2-61.5-42.8-98.8-42.8-19.9 0-39 4.3-56.7 12.5 69.8-91.8 67.4-222.6-10.3-305.1-43.7-46.7-105.4-73.5-169.3-73.5-53.5 0-105.7 18.7-147.1 52.7-41.4-34-93.6-52.7-147.1-52.7-64 0-125.7 26.8-169.3 73.4-85.2 90.5-80.3 238.5 11.1 329.9l273.8 273.6c8.4 8.4 19.6 13.1 31.6 13.1h0.1c11.9 0 23.1-4.7 31.5-13.1l88.2-88.2c3.5 4.3 7.1 8.5 11.1 12.4l148.2 148.5c6.4 6.3 14.8 9.7 23.7 9.7h0.8c8.9 0 17.2-3.5 23.6-9.7l148.6-148.4c53.3-52.2 56.1-136.6 6.3-192.3z m-482.1 231l-271.1-271c-73.1-72.8-77.6-190.4-10.1-262.1 34.6-37 83.5-58.1 134.3-58.1 44.1 0 86.8 15.9 120 44.9 7.4 6.5 17 10.2 26.9 10.2 9.9 0 19.4-3.6 26.9-10.1C502.1 197 544.9 181 589.3 181c50.5 0 99.2 21.1 133.7 57.8 67.4 71.6 62.8 189.1-10.1 262.1l-4.5 4.5c-13.7-4.6-28.1-7-42.9-7-37.4 0-73.5 15.7-99.1 43.1-34.1 38.1-43.5 89.6-28.9 135.1l-95.7 95.9z m446-68.7L745.4 846.2 603 703.8c-37.2-35.7-39.7-94.4-5.7-133.2 17.6-18.8 42.2-29.5 68-29.5 22.5 0 44.2 8.1 61.1 22.9 10.7 9.3 26.6 9.3 37.3 0 37.8-33.1 95.2-30.2 129.4 6.6 34.2 38.7 31.8 97.4-5.3 133.2z" fill="#6B400D" p-id="1229"></path><path d="M763.7 564c-10.7 9.3-26.6 9.3-37.3 0-16.9-14.8-38.6-22.9-61.1-22.9-25.8 0-50.4 10.7-68 29.5-34 38.8-31.5 97.5 5.7 133.2l142.4 142.4 142.4-142.4c37.1-35.8 39.4-94.5 5.3-133.2-34.3-36.8-91.6-39.7-129.4-6.6z" fill="#FFD524" p-id="1230"></path></svg>