<?xml version="1.0" standalone="no"?><!DOCTYPE svg PUBLIC "-//W3C//DTD SVG 1.1//EN" "http://www.w3.org/Graphics/SVG/1.1/DTD/svg11.dtd"><svg t="1557298335449" class="icon" style="" viewBox="0 0 1024 1024" version="1.1" xmlns="http://www.w3.org/2000/svg" p-id="920" xmlns:xlink="http://www.w3.org/1999/xlink" width="200" height="200"><defs><style type="text/css"></style></defs><path d="M728.348323 475.820128c-14.61813-10.963597-26.312634-24.850821-34.352606-40.199857-0.730906 0.730906-1.461813 0.730906-2.923626 1.461813l-105.250535 25.581728c-22.658101 5.116345-46.047109 8.039971-68.705211 8.039971-21.196288 0-43.123483-2.192719-63.588865-6.578158l-32.159885-7.309065c-10.232691-2.192719-16.810849-12.42541-14.61813-23.389008 2.192719-8.770878 10.232691-15.349036 19.003569-15.349037 1.461813 0 2.923626 0 4.385439 0.730907l32.159885 7.309065c18.272662 4.385439 36.545325 5.847252 55.548894 5.847252 20.465382 0 40.199857-2.192719 59.934333-7.309065l105.250535-25.581728c-2.192719-15.349036-1.461813-31.428979 2.923626-47.508922l78.206995-287.977159c5.847252-21.927195-8.039971-43.85439-29.967166-48.239829L667.683084 1.461813c-3.654532-1.461813-6.578158-1.461813-8.770878-1.461813-14.61813 0-28.505353 8.039971-35.083512 21.927195-19.734475 41.66167-62.857959 70.167024-111.828694 70.167023-48.970735 0-91.363312-28.505353-111.828694-70.167023-6.578158-13.887223-20.465382-21.927195-35.083512-21.927195-2.923626 0-5.116345 0-8.039971 0.730906L290.535332 14.61813c-21.927195 4.385439-35.814418 26.312634-29.967166 48.239829L338.775161 350.835118c12.42541 46.778016-4.385439 96.479657-43.85439 124.98501-97.94147 70.89793-271.16631 222.195575-271.16631 397.613134 0 80.399714 79.668808 117.675946 155.683084 117.675946 32.159886 0 63.588865-6.578158 88.439686-19.003569 15.349036-8.039971 27.774447-10.963597 40.199857-10.963598 52.625268 0 84.054247 62.857959 203.922912 62.857959 120.599572 0 151.297645-62.857959 203.922912-62.857959 11.694504 0 24.850821 2.923626 40.199857 10.963598 24.850821 12.42541 56.2798 19.003569 88.439686 19.003569 76.014276 0 155.683084-36.545325 155.683084-117.675946 0-175.417559-173.224839-326.715203-271.897216-397.613134z m210.50107 467.780158c-24.119914 16.079943-58.47252 24.850821-94.286938 24.85082-29.23626 0-57.010707-5.847252-78.206995-16.810849-17.541756-8.770878-33.621699-13.156317-49.701641-13.156317-27.04354 0-48.239829 11.694504-70.167024 24.850821-32.159886 17.541756-67.974304 38.007138-134.486795 38.007138-66.512491 0-102.326909-20.465382-133.755889-38.007138-22.658101-12.42541-43.85439-24.850821-70.167023-24.850821-16.079943 0-32.159886 4.385439-49.701642 13.156317-21.196288 10.963597-48.970735 16.810849-78.206995 16.810849-35.814418 0-70.167024-8.770878-94.286938-24.85082-26.312634-16.810849-39.468951-40.930764-39.468951-70.167024 0-71.628837 31.428979-146.912206 94.286938-223.657388 54.817987-67.243398 122.061385-121.330478 168.108494-155.683083 46.047109-33.621699 66.512491-92.825125 51.894361-148.374019L282.49536 57.010707c-1.461813-4.385439-0.730906-9.501784 2.19272-13.156317 2.192719-4.385439 6.578158-6.578158 10.963597-8.039972L362.164168 21.927195h3.654533c6.578158 0 12.42541 3.654532 15.349036 9.501784 24.119914 50.432548 76.014276 82.592434 131.563169 82.592434s107.443255-32.159886 131.56317-82.592434c2.192719-5.847252 8.039971-9.501784 14.61813-9.501784h3.654532l66.512491 13.887223c4.385439 0.730906 8.770878 3.654532 10.963598 8.039972 2.192719 4.385439 2.923626 8.770878 2.192719 13.156317L664.028551 345.718772c-2.923626 11.694504-4.385439 24.119914-4.385439 36.545325l-87.708779 21.196288c-17.541756 4.385439-36.545325 6.578158-54.817988 6.578159-16.810849 0-34.352605-2.192719-50.432548-5.847252l-32.159886-7.309065c-2.923626-0.730906-5.847252-0.730906-8.770877-0.730907-19.734475 0-35.814418 13.156317-40.199858 32.159886-2.192719 10.963597-0.730906 21.927195 5.116346 31.42898 5.847252 9.501784 15.349036 16.079943 26.312634 18.272662l32.159885 7.309065c21.927195 5.116345 45.316203 7.309065 68.705211 7.309065 24.850821 0 50.432548-2.923626 74.552462-8.770878l92.825125-22.658101c8.770878 12.42541 19.734475 23.389008 32.159886 32.890792 46.778016 33.621699 114.021413 88.439686 168.108494 155.683083 62.127052 76.745182 94.286938 152.028551 94.286938 223.657388-1.461813 29.23626-14.61813 53.356174-40.930764 70.167024z" p-id="921"></path></svg>